<svg xmlns="http://www.w3.org/2000/svg" width="10.884" height="18.75" viewBox="0 0 10.884 18.75">
  <path id="Path_72" data-name="Path 72" d="M-9.384-11.25A2.251,2.251,0,0,0-11.634-9a2.251,2.251,0,0,0,2.25,2.25A2.251,2.251,0,0,0-7.134-9,2.251,2.251,0,0,0-9.384-11.25Zm-2.25-4.875a2.251,2.251,0,0,0,2.25,2.25,2.251,2.251,0,0,0,2.25-2.25,2.251,2.251,0,0,0-2.25-2.25A2.251,2.251,0,0,0-11.634-16.125Zm0,14.25A2.251,2.251,0,0,0-9.384.375a2.251,2.251,0,0,0,2.25-2.25,2.251,2.251,0,0,0-2.25-2.25A2.251,2.251,0,0,0-11.634-1.875ZM-3-11.25A2.251,2.251,0,0,0-5.25-9,2.251,2.251,0,0,0-3-6.75,2.251,2.251,0,0,0-.75-9,2.251,2.251,0,0,0-3-11.25Zm-2.25-4.875A2.251,2.251,0,0,0-3-13.875a2.251,2.251,0,0,0,2.25-2.25A2.251,2.251,0,0,0-3-18.375,2.251,2.251,0,0,0-5.25-16.125Zm0,14.25A2.251,2.251,0,0,0-3,.375,2.251,2.251,0,0,0-.75-1.875,2.251,2.251,0,0,0-3-4.125,2.251,2.251,0,0,0-5.25-1.875Z" transform="translate(11.634 18.375)" fill="#29262a" opacity="0.3"/>
</svg>
